<?xml version="1.0" encoding="utf-8"?>
<!-- Generator: Adobe Illustrator 19.0.1, SVG Export Plug-In . SVG Version: 6.00 Build 0)  -->
<svg version="1.1" id="Layer_1" xmlns="http://www.w3.org/2000/svg" xmlns:xlink="http://www.w3.org/1999/xlink" x="0px" y="0px"
	 viewBox="0 0 67 34.3" enable-background="new 0 0 67 34.3" xml:space="preserve">
<path fill="#0091FF" d="M61.9,32c-1.5,0-2.8-1.2-2.8-2.8s1.2-2.8,2.8-2.8c1.5,0,2.8,1.2,2.8,2.8S63.4,32,61.9,32 M26.4,8.9
	c1.5,0,2.8,1.2,2.8,2.8c0,1.5-1.2,2.8-2.8,2.8c-1.5,0-2.8-1.2-2.8-2.8C23.6,10.2,24.8,8.9,26.4,8.9 M46.9,19.2
	c-1.5,0-2.8-1.2-2.8-2.8c0-1.5,1.2-2.8,2.8-2.8c1.5,0,2.8,1.2,2.8,2.8C49.7,17.9,48.4,19.2,46.9,19.2 M61.9,24.1
	c-1.5,0-2.8,0.6-3.7,1.6h-2.8c0,0,0,0,0,0h-6.3c-4.8-0.3-8.8-4.2-8.9-9.1c-0.1-5.2,4.1-9.5,9.3-9.5c3.9,0,7.2,2.4,8.6,5.8h-7.6
	c-0.9-1-2.2-1.6-3.7-1.6c-2.8,0-5.1,2.3-5.1,5.1s2.3,5.1,5.1,5.1c1.4,0,2.8-0.6,3.7-1.6h11c2.4,0,4.3-1.9,4.3-4.3c0-0.1,0-0.1,0-0.2
	c0,0,0-0.1,0-0.1c-0.1-0.8-0.2-1.7-0.4-2.5C63.9,5.5,57.3,0,49.5,0c-7.8,0-14.3,5.5-15.9,12.8c0,0-0.4,2.7-0.4,3.6
	c0,0.9,0.3,3.5,0.3,3.5c0.5,2.1,1.3,4.1,2.5,5.8H16.4c-5.1,0-9.3-4.2-9.3-9.3s4.2-9.3,9.3-9.3h4.5h1.3h0.6v0.6v0.4
	c-0.9,0.9-1.5,2.2-1.5,3.6c0,2.8,2.3,5.1,5.1,5.1c2.8,0,5.1-2.3,5.1-5.1c0-1.5-0.6-2.8-1.6-3.7V4.3v0v0c0-0.1,0-0.1,0-0.2
	c0,0,0-0.1,0-0.1c-0.1-2.3-2-4.1-4.3-4.1h-2.7h-1.9h-4.5C7.6,0,2.9,7.1,2.9,7.1C1.1,9.7,0,12.9,0,16.4c0,9,7.3,16.4,16.4,16.4H49
	c0.2,0,0.4,0,0.6,0h8.6c0.9,1,2.2,1.6,3.7,1.6c2.8,0,5.1-2.3,5.1-5.1S64.7,24.1,61.9,24.1"/>
</svg>
